<?xml version="1.0" standalone="no"?>
<svg width="25cm" height="20cm" viewBox="0 -18 20 35"
     xmlns="http://www.w3.org/2000/svg" version="1.1">

<path class="Grid" d="M-9,-9 L9,-9" />
<path class="Grid" d="M-9,-6 L9,-6" />
<path class="Grid" d="M-9,-3 L9,-3" />
<path class="Grid" d="M-9,0 L9,0" />
<path class="Grid" d="M-9,3 L9,3" />
<path class="Grid" d="M-9,6 L9,6" />
<path class="Grid" d="M-9,9 L9,9" />
<path class="Grid" d="M-9,-9 L-9,9" />
<path class="Grid" d="M-6,-9 L-6,9" />
<path class="Grid" d="M-3,-9 L-3,9" />
<path class="Grid" d="M0,-9 L0,9" />
<path class="Grid" d="M3,-9 L3,9" />
<path class="Grid" d="M6,-9 L6,9" />
<path class="Grid" d="M9,-9 L9,9" />

<circle class="Helper" cx="0" cy="3" r="9" />
<circle class="Helper" cx="0" cy="3" r="6" />
<circle class="Helper" cx="0" cy="3" r="3" />

  <style type="text/css"><![CDATA[
    .Stroke { fill:none; stroke:black; stroke-width:0.1 }
    .Grid { fill:none; stroke:grey; stroke-width:0.01 }
    .Helper { fill:none; stroke:red; stroke-width:0.01 }
  ]]></style>

<!--
grid = 3
e = 2 * sqrt(2)
s = e/grid

p0@(x0, y0) = (-grid*e, 0) {- = (-8.485281374238571,0) -}
p1@(x1, y1) = (x0 + e, x0*s) {- = (-5.6568542494923815,-8.0) -}
p2@(x2, y2) = (-x1,y1) {- = (5.6568542494923815,-8.0) -}
p3@(x3, y3) = (-x0, y0) {- = (8.485281374238571,0) -}
-->

<path class="Helper" d="M-8.485281374238571,0 L-5.6568542494923815,-8.0" />
<circle class="Helper" cx="-8.485281374238571" cy="0" r="0.1" />
<circle class="Helper" cx="-5.6568542494923815" cy="-8.0" r="0.1" />

<path class="Helper" d="M8.485281374238571,0 L5.6568542494923815,-8.0" />
<circle class="Helper" cx="5.6568542494923815" cy="-8.0" r="0.1" />
<circle class="Helper" cx="8.485281374238571" cy="0" r="0.1" />

<path class="Stroke" d="
  M-8.485281374238571,0
  C-5.6568542494923815,-8.0
   5.6568542494923815,-8.0
   8.485281374238571,0
" />

<path class="Helper" d="M-8.485281374238571,6.0 L-5.6568542494923815,14.0" />
<path class="Helper" d="M8.485281374238571,6.0 L5.6568542494923815,14.0" />

<path class="Stroke" d="
  M-8.485281374238571,6.0
  C-5.6568542494923815,14.0
   5.6568542494923815,14.0
   8.485281374238571,6.0
" />

<!--
t=1/4
p4@(x4, y4) = (x0, y0)
p5@(x5, y5) = (x4 - grid*s*t, -x4*s) {- = (-9.19238815542512,2.0) -}
p6@(x6, y6) = (x5, -y5 + 2*grid) {- = (-11.313708498984761,-2.0) -}

-->

<path class="Helper" d="M-8.485281374238571,0 L-9.19238815542512,2.0" />
<path class="Helper" d="M-8.485281374238571,6.0 L-9.19238815542512,4.0" />
<circle class="Helper" cx="-9.19238815542512" cy="2.0" r="0.1" />
<circle class="Helper" cx="-9.19238815542512" cy="4.0" r="0.1" />
<path class="Stroke" d="
  M-8.485281374238571,0
  C-9.19238815542512,2.0
   -9.19238815542512,4.0
   -8.485281374238571,6.0
" />

<path class="Helper" d="M8.485281374238571,0 L9.19238815542512,2.0" />
<path class="Helper" d="M8.485281374238571,6.0 L9.19238815542512,4.0" />
<circle class="Helper" cx="9.19238815542512" cy="2.0" r="0.1" />
<circle class="Helper" cx="9.19238815542512" cy="4.0" r="0.1" />
<path class="Stroke" d="
  M8.485281374238571,0
  C9.19238815542512,2.0
   9.19238815542512,4.0
   8.485281374238571,6.0
" />



</svg>
